<svg xmlns="http://www.w3.org/2000/svg" xmlns:xlink="http://www.w3.org/1999/xlink" width="500" zoomAndPan="magnify" viewBox="0 0 375 374.999991" height="500" preserveAspectRatio="xMidYMid meet" version="1.0"><defs><g/><clipPath id="30c6b1ad7a"><path d="M 11 191 L 366 191 L 366 305 L 11 305 Z M 11 191 " clip-rule="nonzero"/></clipPath><clipPath id="f047377129"><path d="M 4.476562 276.492188 L 361.558594 180.53125 L 371.875 218.917969 L 14.792969 314.878906 Z M 4.476562 276.492188 " clip-rule="nonzero"/></clipPath><clipPath id="099686b1ca"><path d="M 4.476562 276.492188 L 361.558594 180.53125 L 371.875 218.917969 L 14.792969 314.878906 Z M 4.476562 276.492188 " clip-rule="nonzero"/></clipPath></defs><rect x="-37.5" width="450" fill="#ffffff" y="-37.499999" height="449.999989" fill-opacity="1"/><rect x="-37.5" width="450" fill="#ffffff" y="-37.499999" height="449.999989" fill-opacity="1"/><g fill="#ff7a57" fill-opacity="1"><g transform="translate(12.100875, 201.078894)"><g><path d="M 107.421875 -130.09375 C 106.878906 -127.21875 106.375 -124.34375 105.90625 -121.46875 C 105.4375 -118.59375 104.863281 -115.757812 104.1875 -112.96875 C 101.914062 -102.488281 99.671875 -92.007812 97.453125 -81.53125 C 95.242188 -71.050781 93.082031 -60.507812 90.96875 -49.90625 C 89.488281 -43.269531 88.070312 -36.644531 86.71875 -30.03125 C 85.363281 -23.425781 83.96875 -16.671875 82.53125 -9.765625 C 81.976562 -7.023438 81.363281 -4.269531 80.6875 -1.5 C 80.007812 1.269531 79.328125 4.046875 78.640625 6.828125 C 78.253906 7.816406 77.898438 8.832031 77.578125 9.875 C 77.253906 10.925781 76.832031 12.023438 76.3125 13.171875 C 75.925781 14.160156 75.332031 15.179688 74.53125 16.234375 C 73.394531 17.597656 72.035156 18.390625 70.453125 18.609375 C 69.535156 18.742188 68.539062 18.582031 67.46875 18.125 C 66.40625 17.675781 65.53125 16.898438 64.84375 15.796875 C 64.476562 15.035156 64.132812 14.242188 63.8125 13.421875 C 63.5 12.597656 63.15625 11.816406 62.78125 11.078125 C 62.070312 8.890625 61.484375 6.617188 61.015625 4.265625 C 60.554688 1.921875 60.09375 -0.414062 59.625 -2.75 C 58.539062 -9.550781 57.820312 -16.335938 57.46875 -23.109375 C 57.125 -29.890625 56.941406 -36.691406 56.921875 -43.515625 C 56.847656 -45.921875 56.847656 -48.296875 56.921875 -50.640625 C 56.992188 -52.992188 57.070312 -55.316406 57.15625 -57.609375 C 57.082031 -58.128906 56.960938 -58.515625 56.796875 -58.765625 C 56.679688 -58.609375 56.609375 -58.390625 56.578125 -58.109375 C 56.546875 -57.835938 56.484375 -57.570312 56.390625 -57.3125 C 55.179688 -52.582031 53.9375 -47.882812 52.65625 -43.21875 C 51.375 -38.5625 50.128906 -33.804688 48.921875 -28.953125 C 47.285156 -22.554688 45.710938 -16.144531 44.203125 -9.71875 C 42.691406 -3.289062 41.125 3.1875 39.5 9.71875 C 38.925781 12.332031 38.226562 15 37.40625 17.71875 C 36.59375 20.445312 35.773438 23.144531 34.953125 25.8125 C 34.503906 27.476562 33.671875 29.4375 32.453125 31.6875 C 31.234375 33.9375 29.640625 35.195312 27.671875 35.46875 C 25.835938 35.726562 24.320312 35.171875 23.125 33.796875 C 21.925781 32.421875 21.070312 30.898438 20.5625 29.234375 C 20.363281 27.796875 20.132812 26.390625 19.875 25.015625 C 19.613281 23.648438 19.394531 22.304688 19.21875 20.984375 C 17.226562 2.128906 17.226562 -16.90625 19.21875 -36.125 C 21.207031 -55.34375 24.613281 -73.988281 29.4375 -92.0625 C 30.0625 -94.289062 30.6875 -96.484375 31.3125 -98.640625 C 31.945312 -100.804688 32.578125 -103.003906 33.203125 -105.234375 C 33.410156 -105.660156 33.644531 -106.125 33.90625 -106.625 C 34.175781 -107.132812 34.410156 -107.609375 34.609375 -108.046875 C 35.148438 -109.054688 36.207031 -109.675781 37.78125 -109.90625 C 38.832031 -109.914062 39.671875 -109.59375 40.296875 -108.9375 C 40.929688 -108.289062 41.242188 -107.5 41.234375 -106.5625 C 41.367188 -105.644531 41.296875 -104.769531 41.015625 -103.9375 C 36.828125 -83.257812 33.488281 -63.207031 31 -43.78125 C 28.507812 -24.363281 27.691406 -3.945312 28.546875 17.46875 C 28.566406 17.601562 28.59375 17.800781 28.625 18.0625 C 28.664062 18.320312 28.707031 18.582031 28.75 18.84375 C 29.082031 18.394531 29.273438 17.898438 29.328125 17.359375 C 30.867188 13.128906 32.269531 8.816406 33.53125 4.421875 C 34.800781 0.0234375 35.976562 -4.457031 37.0625 -9.03125 C 39.914062 -19.195312 42.675781 -29.316406 45.34375 -39.390625 C 48.019531 -49.460938 50.722656 -59.578125 53.453125 -69.734375 C 54.773438 -74.597656 56.039062 -79.390625 57.25 -84.109375 C 58.46875 -88.835938 59.679688 -93.5625 60.890625 -98.28125 C 60.992188 -99.363281 61.414062 -100.359375 62.15625 -101.265625 C 62.90625 -102.171875 63.867188 -102.707031 65.046875 -102.875 C 66.816406 -102.71875 67.957031 -101.738281 68.46875 -99.9375 C 68.71875 -99.175781 68.835938 -98.328125 68.828125 -97.390625 C 68.753906 -96.035156 68.6875 -94.617188 68.625 -93.140625 C 68.570312 -91.660156 68.507812 -90.179688 68.4375 -88.703125 C 67.65625 -73.328125 67.234375 -58.007812 67.171875 -42.75 C 67.109375 -27.488281 68.144531 -12.242188 70.28125 2.984375 C 70.71875 2.390625 70.921875 1.960938 70.890625 1.703125 C 71.867188 -1.785156 72.816406 -5.300781 73.734375 -8.84375 C 74.648438 -12.382812 75.53125 -15.890625 76.375 -19.359375 C 78.625 -29.035156 80.90625 -38.753906 83.21875 -48.515625 C 85.53125 -58.285156 87.816406 -68.007812 90.078125 -77.6875 C 91.960938 -86.101562 93.847656 -94.5625 95.734375 -103.0625 C 97.628906 -111.5625 99.457031 -120.015625 101.21875 -128.421875 C 101.613281 -130.359375 101.910156 -132.078125 102.109375 -133.578125 C 102.253906 -134.398438 102.429688 -135.023438 102.640625 -135.453125 C 103.179688 -136.335938 103.847656 -136.832031 104.640625 -136.9375 C 105.554688 -137.0625 106.332031 -136.769531 106.96875 -136.0625 C 107.457031 -135.457031 107.695312 -134.6875 107.6875 -133.75 C 107.632812 -133.195312 107.613281 -132.625 107.625 -132.03125 C 107.644531 -131.445312 107.578125 -130.800781 107.421875 -130.09375 Z M 107.421875 -130.09375 "/></g></g></g><g fill="#ff7a57" fill-opacity="1"><g transform="translate(119.177292, 186.048632)"><g><path d="M 49.890625 -30.671875 C 51.191406 -30.859375 52.335938 -30.359375 53.328125 -29.171875 C 54.160156 -27.953125 54.191406 -26.75 53.421875 -25.5625 C 53.316406 -25.414062 53.175781 -25.226562 53 -25 C 52.820312 -24.769531 52.625 -24.515625 52.40625 -24.234375 C 50.976562 -22.953125 49.585938 -21.648438 48.234375 -20.328125 C 46.890625 -19.003906 45.507812 -17.632812 44.09375 -16.21875 C 40.769531 -13.207031 37.117188 -10.160156 33.140625 -7.078125 C 31.921875 -6.222656 30.6875 -5.472656 29.4375 -4.828125 C 28.1875 -4.191406 26.835938 -3.769531 25.390625 -3.5625 C 21.816406 -3.320312 19.382812 -4.921875 18.09375 -8.359375 C 17.894531 -8.867188 17.726562 -9.347656 17.59375 -9.796875 C 17.457031 -10.242188 17.351562 -10.734375 17.28125 -11.265625 C 17.132812 -11.367188 17.023438 -11.679688 16.953125 -12.203125 C 16.847656 -12.066406 16.703125 -11.914062 16.515625 -11.75 C 16.335938 -11.582031 16.191406 -11.429688 16.078125 -11.296875 C 15.140625 -10.347656 14.234375 -9.414062 13.359375 -8.5 C 12.484375 -7.582031 11.566406 -6.71875 10.609375 -5.90625 C 9.765625 -5.25 8.789062 -4.546875 7.6875 -3.796875 C 6.59375 -3.046875 5.519531 -2.59375 4.46875 -2.4375 C 1.0625 -1.96875 -1.289062 -3.507812 -2.59375 -7.0625 C -3.21875 -8.582031 -3.523438 -10.28125 -3.515625 -12.15625 C -3.441406 -17.382812 -2.269531 -22.898438 0 -28.703125 C 2.257812 -34.503906 4.910156 -39.429688 7.953125 -43.484375 C 8.773438 -44.253906 9.582031 -44.925781 10.375 -45.5 C 11.164062 -46.082031 12.085938 -46.445312 13.140625 -46.59375 C 14.972656 -46.851562 16.734375 -46.238281 18.421875 -44.75 C 19.691406 -43.320312 20.523438 -41.625 20.921875 -39.65625 C 21.660156 -36.300781 21.851562 -33.050781 21.5 -29.90625 C 21.570312 -29.382812 21.507812 -28.84375 21.3125 -28.28125 C 21.320312 -27.34375 21.21875 -26.457031 21 -25.625 C 20.78125 -24.789062 20.390625 -24 19.828125 -23.25 C 19.972656 -23.144531 20.171875 -23.113281 20.421875 -23.15625 C 22.378906 -22.613281 23.695312 -21.390625 24.375 -19.484375 C 24.582031 -18.835938 24.738281 -18.148438 24.84375 -17.421875 C 24.945312 -16.703125 25.046875 -16.019531 25.140625 -15.375 C 25.191406 -14.96875 25.242188 -14.566406 25.296875 -14.171875 C 25.359375 -13.785156 25.425781 -13.328125 25.5 -12.796875 C 26.25 -13.179688 26.625 -13.375 26.625 -13.375 C 27.226562 -13.863281 27.863281 -14.316406 28.53125 -14.734375 C 29.207031 -15.160156 29.851562 -15.625 30.46875 -16.125 C 31.070312 -16.46875 31.644531 -16.878906 32.1875 -17.359375 C 32.726562 -17.835938 33.234375 -18.3125 33.703125 -18.78125 C 34.523438 -19.5625 35.890625 -20.785156 37.796875 -22.453125 C 39.703125 -24.128906 41.65625 -25.707031 43.65625 -27.1875 C 45.65625 -28.675781 47.164062 -29.632812 48.1875 -30.0625 C 48.925781 -30.414062 49.492188 -30.617188 49.890625 -30.671875 Z M 15.234375 -34.453125 C 15.066406 -35.640625 14.675781 -36.992188 14.0625 -38.515625 C 13.738281 -37.929688 13.46875 -37.457031 13.25 -37.09375 C 13.039062 -36.726562 12.832031 -36.332031 12.625 -35.90625 C 11.039062 -32.875 9.601562 -29.488281 8.3125 -25.75 C 7.03125 -22.019531 6.238281 -18.398438 5.9375 -14.890625 C 5.957031 -14.753906 5.953125 -14.550781 5.921875 -14.28125 C 5.890625 -14.007812 5.894531 -13.742188 5.9375 -13.484375 C 7.851562 -15.085938 9.703125 -16.679688 11.484375 -18.265625 C 13.265625 -19.859375 15.144531 -21.265625 17.125 -22.484375 C 16.238281 -23.023438 15.675781 -23.679688 15.4375 -24.453125 C 15.195312 -25.222656 15.082031 -26.007812 15.09375 -26.8125 C 15.0625 -27.070312 15.066406 -27.269531 15.109375 -27.40625 C 15.160156 -27.550781 15.179688 -27.691406 15.171875 -27.828125 C 15.285156 -28.910156 15.359375 -30.023438 15.390625 -31.171875 C 15.429688 -32.316406 15.378906 -33.410156 15.234375 -34.453125 Z M 15.234375 -34.453125 "/></g></g></g><g fill="#ff7a57" fill-opacity="1"><g transform="translate(170.550364, 178.837421)"><g><path d="M 50.046875 -125.46875 C 53.066406 -125.757812 55.460938 -124.414062 57.234375 -121.4375 C 58.078125 -120.21875 58.617188 -118.992188 58.859375 -117.765625 C 59.097656 -116.535156 59.175781 -115.238281 59.09375 -113.875 C 59.15625 -110.539062 58.8125 -107.285156 58.0625 -104.109375 C 56.65625 -96.015625 54.238281 -87.710938 50.8125 -79.203125 C 47.382812 -70.691406 43.492188 -62.382812 39.140625 -54.28125 C 34.796875 -46.175781 30.507812 -38.613281 26.28125 -31.59375 C 26.050781 -31.289062 25.859375 -30.796875 25.703125 -30.109375 C 26.066406 -30.296875 26.46875 -30.484375 26.90625 -30.671875 C 27.34375 -30.867188 27.753906 -31.054688 28.140625 -31.234375 C 30.210938 -32.597656 32.300781 -33.894531 34.40625 -35.125 C 36.519531 -36.363281 38.5625 -37.59375 40.53125 -38.8125 C 41.144531 -39.164062 41.703125 -39.441406 42.203125 -39.640625 C 42.710938 -39.847656 43.222656 -40.054688 43.734375 -40.265625 C 43.984375 -40.304688 44.203125 -40.375 44.390625 -40.46875 C 44.585938 -40.5625 44.753906 -40.617188 44.890625 -40.640625 C 46.078125 -40.804688 47.066406 -40.40625 47.859375 -39.4375 C 48.992188 -37.988281 49.140625 -36.472656 48.296875 -34.890625 C 47.671875 -33.597656 46.679688 -32.519531 45.328125 -31.65625 C 43.378906 -30.300781 41.460938 -28.957031 39.578125 -27.625 C 37.691406 -26.289062 35.695312 -25.007812 33.59375 -23.78125 C 30.28125 -21.71875 26.945312 -19.710938 23.59375 -17.765625 C 20.25 -15.816406 16.914062 -13.875 13.59375 -11.9375 C 12.59375 -11.394531 11.976562 -10.503906 11.75 -9.265625 C 9.601562 7.890625 8.347656 24.957031 7.984375 41.9375 C 7.628906 58.925781 7.519531 76.039062 7.65625 93.28125 C 7.726562 93.800781 7.695312 94.472656 7.5625 95.296875 C 6.988281 96.984375 5.925781 98 4.375 98.34375 C 3.0625 98.53125 1.90625 98.191406 0.90625 97.328125 C -0.0820312 96.472656 -0.664062 95.382812 -0.84375 94.0625 C -1.070312 92.5 -1.257812 90.921875 -1.40625 89.328125 C -1.5625 87.742188 -1.6875 86.15625 -1.78125 84.5625 C -2.394531 69.664062 -2.457031 54.921875 -1.96875 40.328125 C -1.476562 25.742188 -0.394531 11.035156 1.28125 -3.796875 C 1.375 -4.078125 1.394531 -4.378906 1.34375 -4.703125 C 1.300781 -5.035156 1.3125 -5.46875 1.375 -6 C 0.507812 -5.488281 -0.382812 -5.171875 -1.3125 -5.046875 C -2.832031 -4.421875 -4.445312 -3.992188 -6.15625 -3.765625 C -6.675781 -3.679688 -7.128906 -3.613281 -7.515625 -3.5625 C -7.910156 -3.507812 -8.378906 -3.507812 -8.921875 -3.5625 C -10.671875 -3.59375 -12.144531 -4.0625 -13.34375 -4.96875 C -14.84375 -6.09375 -15.523438 -7.597656 -15.390625 -9.484375 C -15.242188 -11.378906 -14.25 -12.453125 -12.40625 -12.703125 C -11.625 -12.816406 -11.023438 -12.769531 -10.609375 -12.5625 C -9.765625 -12.414062 -9.21875 -12.359375 -8.96875 -12.390625 C -8.707031 -12.429688 -8.515625 -12.488281 -8.390625 -12.5625 C -8.265625 -12.644531 -8.132812 -12.695312 -8 -12.71875 C -6.632812 -13.457031 -5.226562 -14.160156 -3.78125 -14.828125 C -2.332031 -15.492188 -0.976562 -16.050781 0.28125 -16.5 C 2.1875 -17.289062 3.253906 -18.78125 3.484375 -20.96875 C 4.390625 -27.78125 5.757812 -35.628906 7.59375 -44.515625 C 9.4375 -53.410156 11.742188 -62.503906 14.515625 -71.796875 C 17.296875 -81.085938 20.5625 -89.742188 24.3125 -97.765625 C 28.070312 -105.785156 32.335938 -112.335938 37.109375 -117.421875 C 39.066406 -119.703125 40.988281 -121.507812 42.875 -122.84375 C 44.769531 -124.1875 47.160156 -125.0625 50.046875 -125.46875 Z M 52.140625 -111.921875 C 52.160156 -112.710938 52.109375 -113.53125 51.984375 -114.375 C 51.867188 -115.226562 51.753906 -116.050781 51.640625 -116.84375 C 51.359375 -117.882812 50.894531 -118.359375 50.25 -118.265625 C 48.9375 -118.078125 47.460938 -117.132812 45.828125 -115.4375 C 44.191406 -113.738281 42.644531 -111.882812 41.1875 -109.875 C 39.726562 -107.863281 38.675781 -106.273438 38.03125 -105.109375 C 33.59375 -97.796875 29.882812 -89.675781 26.90625 -80.75 C 23.9375 -71.832031 21.460938 -62.753906 19.484375 -53.515625 C 17.503906 -44.273438 15.695312 -35.457031 14.0625 -27.0625 C 15.21875 -28.425781 16.289062 -29.847656 17.28125 -31.328125 C 20.101562 -36.003906 23.441406 -41.789062 27.296875 -48.6875 C 31.148438 -55.582031 34.90625 -62.898438 38.5625 -70.640625 C 42.226562 -78.390625 45.359375 -85.890625 47.953125 -93.140625 C 50.546875 -100.390625 51.941406 -106.648438 52.140625 -111.921875 Z M 52.140625 -111.921875 "/></g></g></g><g fill="#ff7a57" fill-opacity="1"><g transform="translate(225.466397, 171.128885)"><g><path d="M 49.890625 -30.671875 C 51.191406 -30.859375 52.335938 -30.359375 53.328125 -29.171875 C 54.160156 -27.953125 54.191406 -26.75 53.421875 -25.5625 C 53.316406 -25.414062 53.175781 -25.226562 53 -25 C 52.820312 -24.769531 52.625 -24.515625 52.40625 -24.234375 C 50.976562 -22.953125 49.585938 -21.648438 48.234375 -20.328125 C 46.890625 -19.003906 45.507812 -17.632812 44.09375 -16.21875 C 40.769531 -13.207031 37.117188 -10.160156 33.140625 -7.078125 C 31.921875 -6.222656 30.6875 -5.472656 29.4375 -4.828125 C 28.1875 -4.191406 26.835938 -3.769531 25.390625 -3.5625 C 21.816406 -3.320312 19.382812 -4.921875 18.09375 -8.359375 C 17.894531 -8.867188 17.726562 -9.347656 17.59375 -9.796875 C 17.457031 -10.242188 17.351562 -10.734375 17.28125 -11.265625 C 17.132812 -11.367188 17.023438 -11.679688 16.953125 -12.203125 C 16.847656 -12.066406 16.703125 -11.914062 16.515625 -11.75 C 16.335938 -11.582031 16.191406 -11.429688 16.078125 -11.296875 C 15.140625 -10.347656 14.234375 -9.414062 13.359375 -8.5 C 12.484375 -7.582031 11.566406 -6.71875 10.609375 -5.90625 C 9.765625 -5.25 8.789062 -4.546875 7.6875 -3.796875 C 6.59375 -3.046875 5.519531 -2.59375 4.46875 -2.4375 C 1.0625 -1.96875 -1.289062 -3.507812 -2.59375 -7.0625 C -3.21875 -8.582031 -3.523438 -10.28125 -3.515625 -12.15625 C -3.441406 -17.382812 -2.269531 -22.898438 0 -28.703125 C 2.257812 -34.503906 4.910156 -39.429688 7.953125 -43.484375 C 8.773438 -44.253906 9.582031 -44.925781 10.375 -45.5 C 11.164062 -46.082031 12.085938 -46.445312 13.140625 -46.59375 C 14.972656 -46.851562 16.734375 -46.238281 18.421875 -44.75 C 19.691406 -43.320312 20.523438 -41.625 20.921875 -39.65625 C 21.660156 -36.300781 21.851562 -33.050781 21.5 -29.90625 C 21.570312 -29.382812 21.507812 -28.84375 21.3125 -28.28125 C 21.320312 -27.34375 21.21875 -26.457031 21 -25.625 C 20.78125 -24.789062 20.390625 -24 19.828125 -23.25 C 19.972656 -23.144531 20.171875 -23.113281 20.421875 -23.15625 C 22.378906 -22.613281 23.695312 -21.390625 24.375 -19.484375 C 24.582031 -18.835938 24.738281 -18.148438 24.84375 -17.421875 C 24.945312 -16.703125 25.046875 -16.019531 25.140625 -15.375 C 25.191406 -14.96875 25.242188 -14.566406 25.296875 -14.171875 C 25.359375 -13.785156 25.425781 -13.328125 25.5 -12.796875 C 26.25 -13.179688 26.625 -13.375 26.625 -13.375 C 27.226562 -13.863281 27.863281 -14.316406 28.53125 -14.734375 C 29.207031 -15.160156 29.851562 -15.625 30.46875 -16.125 C 31.070312 -16.46875 31.644531 -16.878906 32.1875 -17.359375 C 32.726562 -17.835938 33.234375 -18.3125 33.703125 -18.78125 C 34.523438 -19.5625 35.890625 -20.785156 37.796875 -22.453125 C 39.703125 -24.128906 41.65625 -25.707031 43.65625 -27.1875 C 45.65625 -28.675781 47.164062 -29.632812 48.1875 -30.0625 C 48.925781 -30.414062 49.492188 -30.617188 49.890625 -30.671875 Z M 15.234375 -34.453125 C 15.066406 -35.640625 14.675781 -36.992188 14.0625 -38.515625 C 13.738281 -37.929688 13.46875 -37.457031 13.25 -37.09375 C 13.039062 -36.726562 12.832031 -36.332031 12.625 -35.90625 C 11.039062 -32.875 9.601562 -29.488281 8.3125 -25.75 C 7.03125 -22.019531 6.238281 -18.398438 5.9375 -14.890625 C 5.957031 -14.753906 5.953125 -14.550781 5.921875 -14.28125 C 5.890625 -14.007812 5.894531 -13.742188 5.9375 -13.484375 C 7.851562 -15.085938 9.703125 -16.679688 11.484375 -18.265625 C 13.265625 -19.859375 15.144531 -21.265625 17.125 -22.484375 C 16.238281 -23.023438 15.675781 -23.679688 15.4375 -24.453125 C 15.195312 -25.222656 15.082031 -26.007812 15.09375 -26.8125 C 15.0625 -27.070312 15.066406 -27.269531 15.109375 -27.40625 C 15.160156 -27.550781 15.179688 -27.691406 15.171875 -27.828125 C 15.285156 -28.910156 15.359375 -30.023438 15.390625 -31.171875 C 15.429688 -32.316406 15.378906 -33.410156 15.234375 -34.453125 Z M 15.234375 -34.453125 "/></g></g></g><g fill="#ff7a57" fill-opacity="1"><g transform="translate(276.839469, 163.917673)"><g><path d="M 7.484375 -16.703125 C 9.328125 -16.953125 10.519531 -16.117188 11.0625 -14.203125 C 11.164062 -13.410156 11.144531 -12.601562 11 -11.78125 C 10.96875 -10.976562 10.914062 -9.898438 10.84375 -8.546875 C 10.769531 -7.203125 10.515625 -6.160156 10.078125 -5.421875 C 9.660156 -4.554688 8.992188 -4.0625 8.078125 -3.9375 C 7.546875 -3.863281 6.929688 -3.976562 6.234375 -4.28125 C 4.898438 -5.164062 4.09375 -6.59375 3.8125 -8.5625 C 3.632812 -9.875 3.753906 -11.429688 4.171875 -13.234375 C 4.222656 -13.773438 4.359375 -14.226562 4.578125 -14.59375 C 4.796875 -14.957031 5.015625 -15.289062 5.234375 -15.59375 C 5.816406 -16.195312 6.566406 -16.566406 7.484375 -16.703125 Z M 7.484375 -16.703125 "/></g></g></g><g clip-path="url(#30c6b1ad7a)"><g clip-path="url(#f047377129)"><g clip-path="url(#099686b1ca)"><path fill="#ff7a57" d="M 345.945312 200.097656 C 334.496094 204.582031 322.46875 208.65625 309.824219 212.523438 C 249.042969 231.203125 177.34375 244.472656 119.410156 265.382812 C 116.597656 266.421875 116.4375 268.617188 116.398438 268.816406 C 116.363281 269.390625 116.933594 274.296875 121.445312 273.648438 C 122.082031 273.570312 124.527344 272.914062 125.511719 272.742188 C 142.605469 268.335938 159.496094 263.515625 176.453125 258.957031 C 180.738281 257.804688 184.957031 256.765625 189.175781 255.726562 C 211.300781 250.15625 233.199219 245.488281 255.195312 241.546875 C 277.21875 237.691406 299.316406 234.46875 321.976562 231.941406 C 324.257812 231.703125 325.929688 229.566406 325.695312 227.285156 C 325.433594 224.921875 323.320312 223.332031 321.039062 223.570312 C 309.753906 224.820312 298.6875 226.203125 287.671875 227.757812 C 296.0625 225.5 304.320312 223.09375 312.378906 220.648438 C 328.914062 215.550781 344.757812 209.980469 359.230469 203.839844 C 362.171875 202.582031 363.773438 201.214844 364.457031 200.277344 C 365.59375 198.570312 365.605469 196.878906 364.945312 195.460938 C 364.464844 194.371094 363.296875 192.8125 360.667969 192.113281 C 356.71875 191.015625 346.621094 191.105469 332.296875 193.269531 C 326.628906 194.136719 315.382812 196.59375 303.355469 199.265625 C 285.683594 203.265625 266.308594 207.910156 260.363281 209.507812 C 221.132812 219.769531 162.445312 234.039062 109.082031 252.410156 C 71.871094 265.316406 37.152344 280.175781 13.496094 297.128906 C 11.609375 298.476562 11.105469 301.144531 12.546875 303.007812 C 13.894531 304.894531 16.449219 305.332031 18.425781 303.957031 C 41.542969 287.433594 75.433594 272.984375 111.902344 260.464844 C 164.980469 242.074219 223.425781 227.964844 262.550781 217.636719 C 268.429688 216.148438 287.691406 211.441406 305.1875 207.488281 C 317.042969 204.867188 328.023438 202.476562 333.609375 201.632812 C 338.296875 200.9375 342.371094 200.402344 345.945312 200.097656 Z M 345.945312 200.097656 " fill-opacity="1" fill-rule="evenodd"/></g></g></g></svg>